<svg width="14" height="8" viewBox="0 0 14 8" fill="none" xmlns="http://www.w3.org/2000/svg">
<path d="M0.933007 0.766602C1.09967 0.599935 1.29701 0.516602 1.52501 0.516602C1.75301 0.516602 1.95012 0.599935 2.11634 0.766602L6.99967 5.64993L11.8997 0.749935C12.0552 0.594379 12.2497 0.516602 12.483 0.516602C12.7163 0.516602 12.9163 0.599935 13.083 0.766602C13.2497 0.933268 13.333 1.1306 13.333 1.3586C13.333 1.5866 13.2497 1.78371 13.083 1.94993L7.46634 7.54994C7.39967 7.6166 7.32745 7.66393 7.24967 7.69193C7.1719 7.71993 7.08856 7.73371 6.99967 7.73327C6.91079 7.73327 6.82745 7.71927 6.74967 7.69127C6.6719 7.66327 6.59967 7.61616 6.53301 7.54994L0.916341 1.93327C0.760785 1.77771 0.683007 1.58593 0.683007 1.35793C0.683007 1.12993 0.76634 0.932824 0.933007 0.766602Z" fill="#909592"/>
</svg>
