<svg width="12" height="12" viewBox="0 0 12 12" fill="none" xmlns="http://www.w3.org/2000/svg">
<path d="M0.586047 12.0001C0.470144 12.0001 0.356837 11.9657 0.26046 11.9014C0.164083 11.837 0.0889654 11.7455 0.0446082 11.6384C0.000250996 11.5313 -0.0113527 11.4135 0.0112649 11.2998C0.0338824 11.1861 0.0897051 11.0817 0.171672 10.9998L10.9998 0.17164C11.1097 0.0617407 11.2587 0 11.4142 0C11.5696 0 11.7186 0.0617407 11.8285 0.17164C11.9384 0.281539 12.0002 0.430594 12.0002 0.586015C12.0002 0.741436 11.9384 0.890491 11.8285 1.00039L1.00042 11.8285C0.946055 11.883 0.881462 11.9262 0.81035 11.9556C0.739239 11.9851 0.663012 12.0002 0.586047 12.0001Z" fill="#1C3326"/>
<path d="M11.4141 12.0001C11.3372 12.0002 11.2609 11.9851 11.1898 11.9556C11.1187 11.9262 11.0541 11.883 10.9998 11.8285L0.17164 1.00039C0.0617407 0.890491 0 0.741436 0 0.586015C0 0.430594 0.0617407 0.281539 0.17164 0.17164C0.281539 0.0617407 0.430594 0 0.586015 0C0.741435 0 0.890491 0.0617407 1.00039 0.17164L11.8285 10.9998C11.9105 11.0817 11.9663 11.1861 11.9889 11.2998C12.0115 11.4135 11.9999 11.5313 11.9556 11.6384C11.9112 11.7455 11.8361 11.837 11.7397 11.9014C11.6433 11.9657 11.53 12.0001 11.4141 12.0001Z" fill="#1C3326"/>
</svg>
