<svg width="150" height="21" viewBox="0 0 150 21" fill="none" xmlns="http://www.w3.org/2000/svg">
<g clip-path="url(#clip0_186_6266)">
<path d="M29.8824 13.4703C29.8824 13.2433 27.0924 10.3297 26.8354 10.3297C27.0557 10.3297 29.8824 7.45407 29.8824 7.18921C29.8824 7.41624 32.6725 10.3297 32.9294 10.3297C32.6725 10.3676 29.8824 13.2433 29.8824 13.4703Z" fill="#F7A91B"/>
<path d="M3.34068 8.96761L0.110132 5.03247C0.110132 5.2595 0.110132 5.48653 0.110132 5.71355V16.2325C0.110132 17.7838 0.0367107 19.6757 0 20.4703H3.37739C3.34068 19.6757 3.30396 17.7838 3.30396 16.2703L3.34068 8.96761Z" fill="#6F7246"/>
<path d="M16.0059 5.67568C16.0059 4.04865 16.0793 1.7027 16.116 0.416216H12.7019C12.7753 1.66487 12.7753 3.97297 12.7753 5.67568V13.6973L3.37739 2.87568C2.42291 1.89189 1.79883 1.24865 0.734214 0H0C0.0367107 0.87027 0.0734215 1.96757 0.0734215 3.06487L4.00147 7.7946L13.1057 18.1622C14.0235 19.1459 14.6109 19.9027 15.4185 20.8486H16.116C16.0426 19.1459 16.0059 17.6703 16.0059 16.4216V5.67568Z" fill="#6F7246"/>
<path d="M133.297 15.0594L132.893 16.0054C132.195 17.6703 131.461 19.1838 130.764 20.4703H134.361C134.618 19.6757 134.949 18.8054 135.463 17.5567L136.013 16.2324C135.096 15.854 134.214 15.4378 133.297 15.0594Z" fill="#6F7246"/>
<path d="M123.421 11.9568C123.568 11.9189 123.678 11.8433 123.825 11.8054C121.916 11.2379 120.007 10.746 118.098 10.2541C117.181 10.0271 116.226 9.80003 115.308 9.61084V15.3622C115.308 17.3676 115.272 19.6 115.198 20.5081H118.796C118.722 19.6 118.686 17.3676 118.686 15.3622V12.5622H119.897C120.117 12.5622 120.338 12.5244 120.595 12.4865C121.953 15.1352 124.413 18.6541 125.771 20.4703H130.25C127.827 18.2 125.551 14.5676 123.421 11.9568Z" fill="#6F7246"/>
<path d="M104.699 17.5946V11.3514H106.571C108.517 11.3514 110.279 11.3892 111.16 11.427V8.7027C110.683 8.62703 110.242 8.51351 109.765 8.43784C108.847 8.47568 107.746 8.47568 106.534 8.47568H104.699V7.52973C103.598 7.34054 102.459 7.15135 101.358 7V15.2486C101.358 16.573 101.285 18.8811 101.248 20.5081H106.975C108.921 20.5081 110.976 20.5838 111.821 20.6216V17.5568C110.976 17.6324 108.921 17.6324 106.975 17.6324C106.938 17.5946 104.699 17.5946 104.699 17.5946Z" fill="#6F7246"/>
<path d="M95.8515 6.24326C94.3831 6.05407 92.9147 5.90272 91.4463 5.75137L86.8574 15.2865L82.0116 4.99461C80.7267 4.91893 79.4051 4.84326 78.1203 4.80542L76.5417 15.2108C76.2113 17.3297 75.8809 19.5622 75.6606 20.5081H79.1115C79.1482 19.5622 79.295 18.2379 79.4786 16.8L80.6166 8.05947L86.2333 20.6595H87.0777L92.7678 8.05947L93.6856 16.7622C93.8692 18.5027 93.9793 19.6379 93.9793 20.4703H97.7972C97.4668 19.1081 97.2465 17.746 96.9896 15.5892L95.8515 6.24326Z" fill="#6F7246"/>
<path d="M66.85 4.57837C65.198 4.57837 63.5828 4.65404 61.9308 4.69188L57.0115 16.0432C56.314 17.7081 55.5431 19.2216 54.8823 20.5081H58.48C58.737 19.7135 59.0673 18.8432 59.5813 17.5946L60.6459 14.9459H67.6944L68.7957 17.6703C69.2362 18.7676 69.64 19.7513 69.897 20.5081H74.082C73.4212 19.2973 72.6136 17.7081 71.8794 16.0432L66.85 4.57837ZM61.8206 12.1459L64.2068 6.12972L66.593 12.1459H61.8206Z" fill="#6F7246"/>
<path d="M54.662 5.10813C54.5152 5.10813 54.4051 5.14597 54.2582 5.14597L50.4403 14.5676L46.8794 5.94056C45.8148 6.09191 44.7502 6.24327 43.6855 6.43245L49.9998 21H50.5872L57.5622 4.8811C56.6077 4.95678 55.6532 5.03245 54.662 5.10813Z" fill="#6F7246"/>
<path d="M138.767 14.9081H143.612L144.714 17.6324C144.787 17.8595 144.897 18.0865 144.971 18.2757C145.999 18.9568 147.026 19.6757 147.981 20.4703H150C149.339 19.2595 148.532 17.6703 147.797 16.0054L140.712 0.0756836H139.758L134.178 13.0162C135.72 13.5838 137.261 14.227 138.767 14.9081ZM140.051 6.12974L142.438 12.146H137.665L140.051 6.12974Z" fill="#6F7246"/>
<path d="M115.272 7.68113C116.336 7.90816 117.438 8.13518 118.502 8.36221C118.539 8.36221 118.576 8.40005 118.649 8.40005V3.14059H120.118C122.614 3.14059 123.862 4.80545 123.862 6.58383C123.862 7.7568 123.385 8.70275 122.577 9.34599C123.715 9.6487 124.853 9.9514 125.991 10.2919C126.762 9.38383 127.239 8.17302 127.239 6.54599C127.239 3.02707 124.78 0.454102 120.264 0.454102H115.162C115.235 1.32437 115.272 3.70816 115.272 5.71356V7.68113Z" fill="#6F7246"/>
<path d="M104.699 5.82705V3.25408H106.718C108.664 3.25408 110.683 3.29192 111.564 3.36759V0.264893C110.683 0.340568 108.664 0.416244 106.718 0.416244H101.248C101.285 1.24868 101.358 3.40543 101.358 5.373C102.459 5.52435 103.598 5.6757 104.699 5.82705Z" fill="#6F7246"/>
<path d="M95.6684 4.72973L95.1177 0.0378418H94.1999L92.1074 4.38919C93.3189 4.50271 94.4936 4.61622 95.6684 4.72973Z" fill="#6F7246"/>
<path d="M81.4612 3.74595L79.7358 0.0378418H78.8915L78.3408 3.63244C79.3687 3.67027 80.3966 3.70811 81.4612 3.74595Z" fill="#6F7246"/>
<path d="M66.4463 3.67027L64.8677 0.0378418H63.9132L62.2612 3.82163C63.6562 3.78379 65.0512 3.70811 66.4463 3.67027Z" fill="#6F7246"/>
<path d="M54.6258 4.46491C55.7271 4.35139 56.7917 4.27572 57.893 4.16221C58.4804 2.80004 59.1412 1.40004 59.6918 0.41626H56.0942C55.8005 1.36221 55.2865 2.61085 54.7726 3.82167L54.5156 4.46491C54.589 4.46491 54.589 4.46491 54.6258 4.46491Z" fill="#6F7246"/>
<path d="M43.5758 6.0541C44.6404 5.86491 45.6683 5.67572 46.7329 5.48653L46.0354 3.78383C45.5582 2.61085 45.0809 1.36221 44.824 0.41626H40.9326C41.6301 1.58923 42.3643 3.2541 43.0618 4.84329L43.5758 6.0541Z" fill="#6F7246"/>
<path d="M38.8766 7.41622C38.0322 7.60541 37.1879 7.83244 36.3802 8.02163C36.6005 8.77838 36.7473 9.57298 36.7473 10.4054C36.7473 14.5297 33.7371 17.8595 29.8824 17.8595C26.0645 17.8595 23.0542 14.5297 23.0542 10.4054C23.0542 6.28108 26.0645 2.95136 29.8824 2.95136C32.856 2.95136 35.3156 4.91892 36.2701 7.71892C37.1144 7.4919 37.9588 7.26487 38.8031 7.03784C39.0601 6.96217 39.3171 6.92433 39.5741 6.84865C38.1791 2.91352 34.4346 0.0378418 29.8824 0.0378418C24.1556 0.0378418 19.6401 4.6919 19.6401 10.4432C19.6401 16.1946 24.1188 20.8487 29.8824 20.8487C35.6827 20.8487 40.1614 16.1946 40.1614 10.4432C40.1614 9.34595 39.9779 8.24865 39.6842 7.26487C39.3905 7.30271 39.1335 7.34054 38.8766 7.41622Z" fill="#6F7246"/>
</g>
<defs>
<clipPath id="clip0_186_6266">
<rect width="150" height="21" fill="white"/>
</clipPath>
</defs>
</svg>
