<svg width="150" height="21" viewBox="0 0 150 21" fill="none" xmlns="http://www.w3.org/2000/svg">
<g clip-path="url(#clip0_326_18360)">
<path d="M29.8829 13.4703C29.8829 13.2433 27.0929 10.3297 26.8359 10.3297C27.0562 10.3297 29.8829 7.45407 29.8829 7.18921C29.8829 7.41624 32.6729 10.3297 32.9299 10.3297C32.6729 10.3676 29.8829 13.2433 29.8829 13.4703Z" fill="black"/>
<path d="M3.34067 8.96758L0.110132 5.03244C0.110132 5.25947 0.110132 5.48649 0.110132 5.71352V16.2324C0.110132 17.7838 0.0367107 19.6757 0 20.4703H3.37739C3.34068 19.6757 3.30396 17.7838 3.30396 16.2703L3.34067 8.96758Z" fill="black"/>
<path d="M16.0059 5.67568C16.0059 4.04865 16.0793 1.7027 16.116 0.416216H12.7019C12.7753 1.66486 12.7753 3.97297 12.7753 5.67568V13.6973L3.37739 2.87568C2.42291 1.89189 1.79883 1.24865 0.734214 0H0C0.0367107 0.87027 0.0734214 1.96757 0.0734214 3.06487L4.00147 7.7946L13.1057 18.1622C14.0235 19.1459 14.6109 19.9027 15.4185 20.8486H16.116C16.0426 19.1459 16.0059 17.6703 16.0059 16.4216V5.67568Z" fill="black"/>
<path d="M133.299 15.0594L132.895 16.0054C132.197 17.6703 131.463 19.1838 130.766 20.4703H134.363C134.62 19.6757 134.951 18.8054 135.465 17.5567L136.015 16.2324C135.097 15.854 134.216 15.4378 133.299 15.0594Z" fill="black"/>
<path d="M123.419 11.9568C123.565 11.9189 123.675 11.8433 123.822 11.8054C121.913 11.2379 120.004 10.746 118.095 10.2541C117.178 10.0271 116.223 9.80003 115.305 9.61084V15.3622C115.305 17.3676 115.269 19.6 115.195 20.5081H118.793C118.72 19.6 118.683 17.3676 118.683 15.3622V12.5622H119.894C120.115 12.5622 120.335 12.5244 120.592 12.4865C121.95 15.1352 124.41 18.6541 125.768 20.4703H130.247C127.824 18.2 125.548 14.5676 123.419 11.9568Z" fill="black"/>
<path d="M104.701 17.5946V11.3514H106.573C108.519 11.3514 110.281 11.3892 111.162 11.427V8.7027C110.685 8.62703 110.244 8.51351 109.767 8.43784C108.849 8.47568 107.748 8.47568 106.536 8.47568H104.701V7.52973C103.599 7.34054 102.461 7.15135 101.36 7V15.2486C101.36 16.573 101.287 18.8811 101.25 20.5081H106.977C108.923 20.5081 110.978 20.5838 111.823 20.6216V17.5568C110.978 17.6324 108.923 17.6324 106.977 17.6324C106.94 17.5946 104.701 17.5946 104.701 17.5946Z" fill="black"/>
<path d="M95.8471 6.24326C94.3787 6.05407 92.9103 5.90272 91.4419 5.75137L86.853 15.2865L82.0072 4.99461C80.7223 4.91893 79.4007 4.84326 78.1159 4.80542L76.5373 15.2108C76.2069 17.3297 75.8765 19.5622 75.6562 20.5081H79.1071C79.1438 19.5622 79.2906 18.2379 79.4742 16.8L80.6122 8.05947L86.2289 20.6595H87.0733L92.7634 8.05947L93.6812 16.7622C93.8648 18.5027 93.9749 19.6379 93.9749 20.4703H97.7928C97.4624 19.1081 97.2422 17.746 96.9852 15.5892L95.8471 6.24326Z" fill="black"/>
<path d="M66.8505 4.57837C65.1985 4.57837 63.5833 4.65404 61.9313 4.69188L57.012 16.0432C56.3145 17.7081 55.5436 19.2216 54.8828 20.5081H58.4805C58.7374 19.7135 59.0678 18.8432 59.5818 17.5946L60.6464 14.9459H67.6948L68.7962 17.6703C69.2367 18.7676 69.6405 19.7513 69.8975 20.5081H74.0825C73.4217 19.2973 72.6141 17.7081 71.8799 16.0432L66.8505 4.57837ZM61.8211 12.1459L64.2073 6.12972L66.5935 12.1459H61.8211Z" fill="black"/>
<path d="M54.664 5.1081C54.5172 5.1081 54.407 5.14594 54.2602 5.14594L50.4423 14.5676L46.8813 5.94053C45.8167 6.09188 44.7521 6.24324 43.6875 6.43242L50.0017 21H50.5891L57.5642 4.88107C56.6097 4.95675 55.6552 5.03242 54.664 5.1081Z" fill="black"/>
<path d="M138.769 14.9081H143.614L144.716 17.6324C144.789 17.8595 144.899 18.0865 144.973 18.2757C146.001 18.9568 147.028 19.6757 147.983 20.4703H150.002C149.341 19.2595 148.534 17.6703 147.799 16.0054L140.714 0.0756836H139.76L134.18 13.0162C135.722 13.5838 137.263 14.227 138.769 14.9081ZM140.053 6.12974L142.44 12.146H137.667L140.053 6.12974Z" fill="black"/>
<path d="M115.274 7.68113C116.339 7.90815 117.44 8.13518 118.505 8.36221C118.541 8.36221 118.578 8.40005 118.652 8.40005V3.14059H120.12C122.616 3.14059 123.865 4.80545 123.865 6.58383C123.865 7.7568 123.387 8.70275 122.58 9.34599C123.718 9.6487 124.856 9.9514 125.994 10.2919C126.765 9.38383 127.242 8.17302 127.242 6.54599C127.242 3.02707 124.782 0.454102 120.267 0.454102H115.164C115.237 1.32437 115.274 3.70816 115.274 5.71356V7.68113Z" fill="black"/>
<path d="M104.701 5.82702V3.25405H106.72C108.666 3.25405 110.685 3.29189 111.566 3.36756V0.264862C110.685 0.340538 108.666 0.416213 106.72 0.416213H101.25C101.287 1.24865 101.36 3.4054 101.36 5.37297C102.461 5.52432 103.599 5.67567 104.701 5.82702Z" fill="black"/>
<path d="M95.6703 4.72973L95.1197 0.0378418H94.2019L92.1094 4.38919C93.3208 4.50271 94.4956 4.61622 95.6703 4.72973Z" fill="black"/>
<path d="M81.4642 3.74595L79.7388 0.0378418H78.8944L78.3438 3.63244C79.3716 3.67027 80.3995 3.70811 81.4642 3.74595Z" fill="black"/>
<path d="M66.4507 3.67027L64.8721 0.0378418H63.9176L62.2656 3.82163C63.6606 3.78379 65.0556 3.70811 66.4507 3.67027Z" fill="black"/>
<path d="M54.6258 4.46488C55.7271 4.35136 56.7917 4.27569 57.893 4.16218C58.4804 2.80001 59.1412 1.40001 59.6918 0.416229H56.0942C55.8005 1.36218 55.2865 2.61082 54.7726 3.82163L54.5156 4.46488C54.589 4.46488 54.589 4.46488 54.6258 4.46488Z" fill="black"/>
<path d="M43.5729 6.0541C44.6375 5.86491 45.6654 5.67572 46.73 5.48653L46.0325 3.78383C45.5552 2.61085 45.078 1.36221 44.821 0.41626H40.9297C41.6272 1.58923 42.3614 3.2541 43.0589 4.84329L43.5729 6.0541Z" fill="black"/>
<path d="M38.877 7.41622C38.0327 7.60541 37.1884 7.83244 36.3807 8.02163C36.601 8.77838 36.7478 9.57298 36.7478 10.4054C36.7478 14.5297 33.7375 17.8595 29.8829 17.8595C26.065 17.8595 23.0547 14.5297 23.0547 10.4054C23.0547 6.28108 26.065 2.95136 29.8829 2.95136C32.8565 2.95136 35.3161 4.91892 36.2706 7.71892C37.1149 7.4919 37.9593 7.26487 38.8036 7.03784C39.0606 6.96217 39.3176 6.92433 39.5745 6.84865C38.1795 2.91352 34.435 0.0378418 29.8829 0.0378418C24.156 0.0378418 19.6406 4.6919 19.6406 10.4432C19.6406 16.1946 24.1193 20.8487 29.8829 20.8487C35.6832 20.8487 40.1619 16.1946 40.1619 10.4432C40.1619 9.34595 39.9784 8.24865 39.6847 7.26487C39.391 7.30271 39.134 7.34054 38.877 7.41622Z" fill="black"/>
</g>
<defs>
<clipPath id="clip0_326_18360">
<rect width="150" height="21" fill="white"/>
</clipPath>
</defs>
</svg>
