<svg width="232" height="32" viewBox="0 0 232 32" fill="none" xmlns="http://www.w3.org/2000/svg">
<g clip-path="url(#clip0_186_3765)">
<path d="M46.2185 20.5261C46.2185 20.1802 41.9033 15.7405 41.5059 15.7405C41.8465 15.7405 46.2185 11.3586 46.2185 10.955C46.2185 11.3009 50.5338 15.7405 50.9312 15.7405C50.5338 15.7982 46.2185 20.1802 46.2185 20.5261Z" fill="#F7A91B"/>
<path d="M5.16691 13.6649L0.170338 7.66846C0.170338 8.0144 0.170338 8.36035 0.170338 8.7063V24.7351C0.170338 27.0991 0.0567793 29.982 0 31.1928H5.22369C5.16691 29.982 5.11013 27.0991 5.11013 24.7928L5.16691 13.6649Z" fill="#6F7246"/>
<path d="M24.7558 8.64865C24.7558 6.16937 24.8693 2.59459 24.9261 0.634234H19.6456C19.7592 2.53694 19.7592 6.05405 19.7592 8.64865V20.8721L5.22369 4.38198C3.74743 2.88288 2.78218 1.9027 1.13559 0H0C0.0567792 1.32613 0.113559 2.9982 0.113559 4.67027L6.18894 11.8775L20.2702 27.6757C21.6897 29.1748 22.5981 30.3279 23.8473 31.7694H24.9261C24.8125 29.1748 24.7558 26.9261 24.7558 25.0234V8.64865Z" fill="#6F7246"/>
<path d="M206.166 22.9478L205.541 24.3892C204.462 26.9261 203.327 29.2324 202.248 31.1928H207.812C208.21 29.982 208.721 28.6559 209.516 26.7532L210.367 24.7351C208.948 24.1586 207.585 23.5243 206.166 22.9478Z" fill="#6F7246"/>
<path d="M190.891 18.2198C191.119 18.1621 191.289 18.0468 191.516 17.9892C188.563 17.1243 185.611 16.3747 182.658 15.6252C181.239 15.2793 179.763 14.9333 178.343 14.645V23.409C178.343 26.4648 178.286 29.8666 178.173 31.2504H183.737C183.624 29.8666 183.567 26.4648 183.567 23.409V19.1423H185.441C185.781 19.1423 186.122 19.0847 186.519 19.027C188.62 23.063 192.424 28.4252 194.525 31.1928H201.452C197.705 27.7333 194.185 22.1982 190.891 18.2198Z" fill="#6F7246"/>
<path d="M161.935 26.8108V17.2973H164.831C167.84 17.2973 170.565 17.3549 171.928 17.4126V13.2612C171.19 13.1459 170.509 12.9729 169.77 12.8576C168.351 12.9153 166.648 12.9153 164.774 12.9153H161.935V11.4738C160.232 11.1855 158.471 10.8973 156.768 10.6666V23.236C156.768 25.254 156.654 28.7711 156.598 31.2504H165.455C168.465 31.2504 171.644 31.3657 172.95 31.4234V26.7531C171.644 26.8684 168.465 26.8684 165.455 26.8684C165.398 26.8108 161.935 26.8108 161.935 26.8108Z" fill="#6F7246"/>
<path d="M148.251 9.5135C145.98 9.22521 143.709 8.99458 141.438 8.76395L134.34 23.2937L126.845 7.6108C124.858 7.49548 122.814 7.38017 120.827 7.32251L118.385 23.1784C117.874 26.4072 117.363 29.809 117.022 31.2504H122.36C122.416 29.809 122.644 27.791 122.928 25.6L124.688 12.2811L133.375 31.4811H134.681L143.482 12.2811L144.901 25.5423C145.185 28.1946 145.355 29.9243 145.355 31.1928H151.26C150.749 29.1171 150.409 27.0414 150.011 23.7549L148.251 9.5135Z" fill="#6F7246"/>
<path d="M103.395 6.97656C100.84 6.97656 98.3414 7.09188 95.7864 7.14954L88.178 24.4468C87.0992 26.9838 85.9068 29.2901 84.8848 31.2504H90.4491C90.8466 30.0396 91.3576 28.7135 92.1525 26.8108L93.7991 22.7748H104.701L106.404 26.9261C107.085 28.5982 107.71 30.0973 108.107 31.2504H114.58C113.558 29.4054 112.309 26.9838 111.174 24.4468L103.395 6.97656ZM95.616 18.5081L99.3067 9.34053L102.997 18.5081H95.616Z" fill="#6F7246"/>
<path d="M84.5444 7.78381C84.3173 7.78381 84.1469 7.84147 83.9198 7.84147L78.0148 22.1982L72.5072 9.05228C70.8606 9.28291 69.214 9.51354 67.5674 9.80183L77.3334 32H78.2419L89.0299 7.43787C87.5537 7.55318 86.0774 7.6685 84.5444 7.78381Z" fill="#6F7246"/>
<path d="M214.626 22.7172H222.121L223.824 26.8685C223.938 27.2145 224.108 27.5604 224.221 27.8487C225.811 28.8865 227.401 29.982 228.877 31.1928H232C230.978 29.3478 229.729 26.9262 228.593 24.3892L217.635 0.115356H216.159L207.528 19.8343C209.913 20.6991 212.298 21.6793 214.626 22.7172ZM216.613 9.34058L220.304 18.5081H212.922L216.613 9.34058Z" fill="#6F7246"/>
<path d="M178.287 11.7045C179.933 12.0505 181.637 12.3964 183.283 12.7423C183.34 12.7423 183.397 12.8 183.51 12.8V4.78559H185.781C189.642 4.78559 191.573 7.32253 191.573 10.0324C191.573 11.8198 190.835 13.2613 189.586 14.2414C191.346 14.7027 193.106 15.164 194.866 15.6829C196.058 14.2991 196.797 12.4541 196.797 9.97478C196.797 4.61261 192.992 0.691895 186.009 0.691895H178.116C178.23 2.01802 178.287 5.65045 178.287 8.70631V11.7045Z" fill="#6F7246"/>
<path d="M161.935 8.87924V4.95852H165.058C168.067 4.95852 171.19 5.01618 172.553 5.13149V0.403564C171.19 0.51888 168.067 0.634195 165.058 0.634195H156.598C156.654 1.90266 156.768 5.18915 156.768 8.18735C158.471 8.41798 160.232 8.64861 161.935 8.87924Z" fill="#6F7246"/>
<path d="M147.967 7.20717L147.115 0.0576172H145.695L142.459 6.68825C144.333 6.86122 146.15 7.03419 147.967 7.20717Z" fill="#6F7246"/>
<path d="M125.993 5.70807L123.325 0.0576172H122.019L121.167 5.53509C122.757 5.59275 124.347 5.65041 125.993 5.70807Z" fill="#6F7246"/>
<path d="M102.771 5.59275L100.329 0.0576172H98.8529L96.2979 5.82338C98.4555 5.76573 100.613 5.65041 102.771 5.59275Z" fill="#6F7246"/>
<path d="M84.4877 6.80365C86.1911 6.63067 87.8377 6.51536 89.5411 6.34238C90.4495 4.26671 91.4716 2.13338 92.3233 0.634277H86.7589C86.3047 2.07572 85.5097 3.97842 84.7148 5.82347L84.3174 6.80365C84.4309 6.80365 84.4309 6.80365 84.4877 6.80365Z" fill="#6F7246"/>
<path d="M67.3967 9.22527C69.0433 8.93698 70.6331 8.64869 72.2797 8.3604L71.2009 5.76581C70.4628 3.97842 69.7246 2.07572 69.3272 0.634277H63.3086C64.3874 2.42166 65.523 4.9586 66.6018 7.38022L67.3967 9.22527Z" fill="#6F7246"/>
<path d="M60.1293 11.3009C58.8234 11.5891 57.5174 11.9351 56.2683 12.2234C56.609 13.3765 56.8361 14.5873 56.8361 15.8558C56.8361 22.1405 52.1802 27.2144 46.2184 27.2144C40.3133 27.2144 35.6574 22.1405 35.6574 15.8558C35.6574 9.57113 40.3133 4.49726 46.2184 4.49726C50.8175 4.49726 54.6217 7.49545 56.098 11.7621C57.4039 11.4162 58.7098 11.0702 60.0157 10.7243C60.4132 10.609 60.8106 10.5513 61.2081 10.436C59.0505 4.4396 53.259 0.0576172 46.2184 0.0576172C37.3608 0.0576172 30.377 7.14951 30.377 15.9135C30.377 24.6774 37.304 31.7693 46.2184 31.7693C55.1895 31.7693 62.1166 24.6774 62.1166 15.9135C62.1166 14.2414 61.8327 12.5693 61.3784 11.0702C60.9242 11.1279 60.5267 11.1855 60.1293 11.3009Z" fill="#6F7246"/>
</g>
<defs>
<clipPath id="clip0_186_3765">
<rect width="232" height="32" fill="white"/>
</clipPath>
</defs>
</svg>
