<svg width="233" height="32" viewBox="0 0 233 32" fill="none" xmlns="http://www.w3.org/2000/svg">
<path d="M46.4176 20.526C46.4176 20.1801 42.0837 15.7404 41.6846 15.7404C42.0267 15.7404 46.4176 11.3584 46.4176 10.9548C46.4176 11.3008 50.7514 15.7404 51.1506 15.7404C50.7514 15.7981 46.4176 20.1801 46.4176 20.526Z" fill="black"/>
<path d="M5.18918 13.6653L0.171072 7.66895C0.171072 8.01489 0.171072 8.36084 0.171072 8.70678V24.7356C0.171072 27.0996 0.057024 29.9825 0 31.1933H5.24621C5.18918 29.9825 5.13216 27.0996 5.13216 24.7933L5.18918 13.6653Z" fill="black"/>
<path d="M24.8625 8.64865C24.8625 6.16937 24.9765 2.59459 25.0335 0.634234H19.7303C19.8443 2.53694 19.8443 6.05405 19.8443 8.64865V20.8721L5.24621 4.38198C3.76358 2.88288 2.79418 1.9027 1.14048 0H0C0.057024 1.32613 0.114048 2.9982 0.114048 4.67027L6.21561 11.8775L20.3576 27.6757C21.7832 29.1748 22.6955 30.3279 23.9501 31.7694H25.0335C24.9195 29.1748 24.8625 26.9261 24.8625 25.0234V8.64865Z" fill="black"/>
<path d="M207.054 22.9473L206.427 24.3887C205.343 26.9256 204.203 29.2319 203.119 31.1923H208.707C209.107 29.9815 209.62 28.6554 210.418 26.7527L211.274 24.7347C209.848 24.1581 208.479 23.5238 207.054 22.9473Z" fill="black"/>
<path d="M191.715 18.2203C191.943 18.1626 192.114 18.0473 192.342 17.9897C189.377 17.1248 186.412 16.3752 183.446 15.6257C182.021 15.2797 180.538 14.9338 179.112 14.6455V23.4095C179.112 26.4653 179.055 29.8671 178.941 31.2509H184.53C184.416 29.8671 184.359 26.4653 184.359 23.4095V19.1428H186.24C186.583 19.1428 186.925 19.0851 187.324 19.0275C189.434 23.0635 193.254 28.4257 195.364 31.1933H202.321C198.558 27.7338 195.022 22.1987 191.715 18.2203Z" fill="black"/>
<path d="M162.633 26.8111V17.2976H165.541C168.563 17.2976 171.3 17.3553 172.669 17.4129V13.2616C171.928 13.1463 171.243 12.9733 170.502 12.858C169.076 12.9156 167.366 12.9156 165.484 12.9156H162.633V11.4742C160.922 11.1859 159.154 10.8976 157.444 10.667V23.2364C157.444 25.2544 157.329 28.7715 157.272 31.2508H166.168C169.19 31.2508 172.384 31.3661 173.695 31.4237V26.7535C172.384 26.8688 169.19 26.8688 166.168 26.8688C166.111 26.8111 162.633 26.8111 162.633 26.8111Z" fill="black"/>
<path d="M148.89 9.51326C146.609 9.22497 144.328 8.99434 142.047 8.76371L134.919 23.2934L127.392 7.61055C125.396 7.49524 123.343 7.37992 121.347 7.32227L118.895 23.1781C118.382 26.4069 117.869 29.8088 117.526 31.2502H122.887C122.944 29.8088 123.172 27.7907 123.457 25.5997L125.225 12.2808L133.949 31.4808H135.261L144.1 12.2808L145.525 25.5421C145.81 28.1943 145.981 29.9241 145.981 31.1925H151.912C151.399 29.1169 151.056 27.0412 150.657 23.7547L148.89 9.51326Z" fill="black"/>
<path d="M103.841 6.97656C101.275 6.97656 98.7657 7.09188 96.1996 7.14954L88.5584 24.4468C87.4749 26.9838 86.2774 29.2901 85.251 31.2504H90.8393C91.2385 30.0396 91.7517 28.7135 92.55 26.8108L94.2037 22.7748H105.152L106.863 26.9261C107.547 28.5982 108.175 30.0973 108.574 31.2504H115.075C114.048 29.4054 112.794 26.9838 111.653 24.4468L103.841 6.97656ZM96.0285 18.5081L99.7351 9.34053L103.442 18.5081H96.0285Z" fill="black"/>
<path d="M84.9086 7.78345C84.6805 7.78345 84.5094 7.8411 84.2813 7.8411L78.3508 22.1979L72.8195 9.05191C71.1658 9.28255 69.5121 9.51318 67.8584 9.80146L77.6665 31.9997H78.5789L89.4135 7.4375C87.9308 7.55282 86.4482 7.66813 84.9086 7.78345Z" fill="black"/>
<path d="M215.551 22.717H223.078L224.789 26.8684C224.903 27.2143 225.074 27.5603 225.188 27.8486C226.785 28.8864 228.381 29.9819 229.864 31.1927H233C231.974 29.3477 230.719 26.926 229.579 24.3891L218.573 0.115234H217.091L208.423 19.8342C210.818 20.699 213.213 21.6792 215.551 22.717ZM217.547 9.34046L221.253 18.508H213.84L217.547 9.34046Z" fill="black"/>
<path d="M179.055 11.704C180.709 12.05 182.419 12.3959 184.073 12.7419C184.13 12.7419 184.187 12.7995 184.301 12.7995V4.7851H186.582C190.46 4.7851 192.398 7.32204 192.398 10.0319C192.398 11.8193 191.657 13.2608 190.403 14.241C192.17 14.7022 193.938 15.1635 195.706 15.6824C196.903 14.2986 197.645 12.4536 197.645 9.97429C197.645 4.61213 193.824 0.691406 186.81 0.691406H178.884C178.998 2.01753 179.055 5.64997 179.055 8.70582V11.704Z" fill="black"/>
<path d="M162.633 8.879V4.95828H165.769C168.791 4.95828 171.928 5.01593 173.296 5.13125V0.40332C171.928 0.518636 168.791 0.633951 165.769 0.633951H157.272C157.329 1.90242 157.444 5.18891 157.444 8.1871C159.154 8.41774 160.922 8.64837 162.633 8.879Z" fill="black"/>
<path d="M148.605 7.20717L147.749 0.0576172H146.324L143.073 6.68825C144.955 6.86122 146.78 7.03419 148.605 7.20717Z" fill="black"/>
<path d="M126.536 5.70807L123.856 0.0576172H122.545L121.689 5.53509C123.286 5.59275 124.883 5.65041 126.536 5.70807Z" fill="black"/>
<path d="M103.214 5.59275L100.762 0.0576172H99.279L96.7129 5.82338C98.8798 5.76573 101.047 5.65041 103.214 5.59275Z" fill="black"/>
<path d="M84.8517 6.80316C86.5625 6.63019 88.2161 6.51487 89.9269 6.3419C90.8393 4.26622 91.8657 2.13289 92.721 0.633789H87.1327C86.6765 2.07523 85.8782 3.97793 85.0798 5.82298L84.6807 6.80316C84.7947 6.80316 84.7947 6.80316 84.8517 6.80316Z" fill="black"/>
<path d="M67.6878 9.22576C69.3415 8.93747 70.9381 8.64918 72.5918 8.36089L71.5084 5.7663C70.767 3.97891 70.0257 2.07621 69.6266 0.634766H63.582C64.6655 2.42215 65.806 4.95909 66.8894 7.38071L67.6878 9.22576Z" fill="black"/>
<path d="M60.3884 11.3009C59.0768 11.5891 57.7653 11.9351 56.5107 12.2234C56.8529 13.3765 57.081 14.5873 57.081 15.8558C57.081 22.1405 52.405 27.2144 46.4175 27.2144C40.487 27.2144 35.811 22.1405 35.811 15.8558C35.811 9.57113 40.487 4.49726 46.4175 4.49726C51.0364 4.49726 54.8571 7.49545 56.3397 11.7621C57.6512 11.4162 58.9628 11.0702 60.2743 10.7243C60.6735 10.609 61.0727 10.5513 61.4718 10.436C59.3049 4.4396 53.4885 0.0576172 46.4175 0.0576172C37.5218 0.0576172 30.5078 7.14951 30.5078 15.9135C30.5078 24.6774 37.4647 31.7693 46.4175 31.7693C55.4273 31.7693 62.3842 24.6774 62.3842 15.9135C62.3842 14.2414 62.0991 12.5693 61.6429 11.0702C61.1867 11.1279 60.7875 11.1855 60.3884 11.3009Z" fill="black"/>
</svg>
